<mxfile host="app.diagrams.net" modified="2023-08-03T16:11:27.860Z" agent="Mozilla/5.0 (Macintosh; Intel Mac OS X 10_15_7) AppleWebKit/537.36 (KHTML, like Gecko) Chrome/114.0.0.0 YaBrowser/23.7.0.2564 Yowser/2.5 Safari/537.36" version="21.6.6" etag="X9tv-l64WbhACbBRIA7y" type="github">
  <diagram name="Страница 1" id="ny128E34xbgl6c0hHnbN">
    <mxGraphModel>
      <root>
        <mxCell id="0" />
        <mxCell id="1" parent="0" />
      </root>
    </mxGraphModel>
  </diagram>
</mxfile>
